<?xml version="1.0" encoding="UTF-8"?>
<svg xmlns="http://www.w3.org/2000/svg" xmlns:xlink="http://www.w3.org/1999/xlink" width="238px" height="55px" viewBox="0 0 238 55" version="1.1">
<g id="surface1">
<path style=" stroke:none;fill-rule:nonzero;fill:rgb(89.803922%,90.196078%,90.588235%);fill-opacity:1;" d="M 90.101562 31 L 90.101562 18.5 L 85.898438 28.898438 L 81.800781 28.898438 L 77.601562 18.5 L 77.601562 31 L 72 31 L 72 10 L 78.699219 10 L 83.800781 21.699219 L 88.898438 10 L 95.601562 10 L 95.601562 31 Z M 90.101562 31 "/>
<path style=" stroke:none;fill-rule:nonzero;fill:rgb(89.803922%,90.196078%,90.588235%);fill-opacity:1;" d="M 104.699219 27.699219 L 103.398438 31 L 97 31 L 106 9.898438 L 112.398438 9.898438 L 121.101562 31 L 114.398438 31 L 113.199219 27.699219 Z M 109 16.199219 L 106.398438 23.101562 L 111.5 23.101562 Z M 109 16.199219 "/>
<path style=" stroke:none;fill-rule:nonzero;fill:rgb(89.803922%,90.196078%,90.588235%);fill-opacity:1;" d="M 124 31 L 115.898438 10 L 122.601562 10 L 127.398438 24.601562 L 132.199219 10 L 138.601562 10 L 130.5 31 Z M 124 31 "/>
<path style=" stroke:none;fill-rule:nonzero;fill:rgb(89.803922%,90.196078%,90.588235%);fill-opacity:1;" d="M 146.300781 14.800781 L 146.300781 18.101562 L 156.300781 18.101562 L 156.300781 22.898438 L 146.300781 22.898438 L 146.300781 26.199219 L 157.601562 26.199219 L 157.601562 31 L 140.101562 31 L 140.101562 10 L 157.300781 10 L 157.300781 14.800781 Z M 146.300781 14.800781 "/>
<path style=" stroke:none;fill-rule:nonzero;fill:rgb(89.803922%,90.196078%,90.588235%);fill-opacity:1;" d="M 169.300781 25.300781 L 166 25.300781 L 166 31 L 159.699219 31 L 159.699219 10 L 169.5 10 C 175.199219 10 178.398438 12.699219 178.398438 17.5 C 178.398438 20.601562 177.101562 22.898438 174.898438 24.199219 L 179.199219 31.101562 L 172 31.101562 Z M 169.5 20.5 C 171.398438 20.5 172.398438 19.5 172.398438 17.601562 C 172.398438 15.800781 171.300781 14.699219 169.5 14.699219 L 165.898438 14.699219 L 165.898438 20.398438 Z M 169.5 20.5 "/>
<path style=" stroke:none;fill-rule:nonzero;fill:rgb(89.803922%,90.196078%,90.588235%);fill-opacity:1;" d="M 181.199219 31 L 181.199219 10 L 187.5 10 L 187.5 31 Z M 181.199219 31 "/>
<path style=" stroke:none;fill-rule:nonzero;fill:rgb(89.803922%,90.196078%,90.588235%);fill-opacity:1;" d="M 209.601562 13.5 L 206 17.800781 C 204.699219 16.101562 202.699219 15 201 15 C 198.101562 15 196 17.300781 196 20.398438 C 196 23.5 198.101562 25.800781 201 25.800781 C 202.601562 25.800781 204.601562 24.898438 206 23.398438 L 209.601562 27.300781 C 207.300781 29.800781 203.898438 31.398438 200.601562 31.398438 C 194.199219 31.398438 189.5 26.800781 189.5 20.601562 C 189.5 14.398438 194.300781 9.898438 200.898438 9.898438 C 204 9.800781 207.398438 11.199219 209.601562 13.5 Z M 209.601562 13.5 "/>
<path style=" stroke:none;fill-rule:nonzero;fill:rgb(89.803922%,90.196078%,90.588235%);fill-opacity:1;" d="M 219.800781 23.300781 L 217.398438 26 L 217.398438 31.101562 L 211.101562 31.101562 L 211.101562 10 L 217.398438 10 L 217.398438 18.101562 L 224.5 10 L 231.699219 10 L 224.101562 18.601562 L 232.199219 31.101562 L 224.699219 31.101562 Z M 219.800781 23.300781 "/>
<path style=" stroke:none;fill-rule:nonzero;fill:rgb(89.803922%,90.196078%,90.588235%);fill-opacity:1;" d="M 107.800781 43.699219 L 107.800781 45.800781 L 101 45.800781 L 101 35.199219 L 103.398438 35.199219 L 103.398438 43.601562 Z M 107.800781 43.699219 "/>
<path style=" stroke:none;fill-rule:nonzero;fill:rgb(89.803922%,90.196078%,90.588235%);fill-opacity:1;" d="M 124.898438 43.699219 L 124.101562 45.800781 L 121.601562 45.800781 L 126.101562 35.199219 L 128.601562 35.199219 L 133.101562 45.800781 L 130.601562 45.800781 L 129.800781 43.699219 Z M 127.398438 37.699219 L 125.699219 41.800781 L 129 41.800781 Z M 127.398438 37.699219 "/>
<path style=" stroke:none;fill-rule:nonzero;fill:rgb(89.803922%,90.196078%,90.588235%);fill-opacity:1;" d="M 152.601562 35.199219 C 154.898438 35.199219 156.300781 36.199219 156.300781 37.800781 C 156.300781 38.898438 155.601562 39.800781 154.5 40.101562 C 155.800781 40.398438 156.699219 41.398438 156.699219 42.800781 C 156.699219 44.601562 155.199219 45.699219 152.800781 45.699219 L 147.800781 45.699219 L 147.800781 35.199219 Z M 150.199219 39.398438 L 152.5 39.398438 C 153.398438 39.398438 154 38.898438 154 38.199219 C 154 37.5 153.5 37.101562 152.5 37.101562 L 150.199219 37.101562 Z M 150.199219 43.800781 L 152.5 43.800781 C 153.601562 43.800781 154.300781 43.300781 154.300781 42.5 C 154.300781 41.800781 153.601562 41.300781 152.5 41.300781 L 150.199219 41.300781 Z M 150.199219 43.800781 "/>
<path style=" stroke:none;fill-rule:nonzero;fill:rgb(89.803922%,90.196078%,90.588235%);fill-opacity:1;" d="M 174.398438 37.199219 L 174.398438 39.5 L 179.5 39.5 L 179.5 41.398438 L 174.398438 41.398438 L 174.398438 43.699219 L 180.199219 43.699219 L 180.199219 45.601562 L 172 45.601562 L 172 35.101562 L 180 35.101562 L 180 37 L 174.300781 37 L 174.300781 37.199219 Z M 174.398438 37.199219 "/>
<path style=" stroke:none;fill-rule:nonzero;fill:rgb(89.803922%,90.196078%,90.588235%);fill-opacity:1;" d="M 202.5 43.699219 L 202.5 45.800781 L 195.601562 45.800781 L 195.601562 35.199219 L 198 35.199219 L 198 43.601562 Z M 202.5 43.699219 "/>
<path style=" stroke:none;fill-rule:nonzero;fill:rgb(89.803922%,90.196078%,90.588235%);fill-opacity:1;" d="M 34.300781 21.699219 C 33.699219 22.800781 33 24 32.601562 25.199219 C 31 29 32 31.800781 35.699219 33.699219 C 37.800781 34.800781 40 35.699219 42 36.800781 C 45.199219 38.601562 46.101562 40.398438 45.699219 44.199219 C 47.398438 44.699219 49.300781 45.699219 51.101562 45.699219 C 53.199219 45.699219 56.199219 43.800781 56.898438 40.699219 C 57 40.5 57 40.300781 57 40.199219 C 56.898438 39.898438 56.898438 39.601562 56.699219 39.300781 C 56.398438 39.5 56 39.601562 55.800781 39.800781 C 55.699219 39.898438 55.699219 40.199219 55.699219 40.398438 C 55.601562 40.398438 55.398438 40.5 55.300781 40.5 C 55 40 54.601562 39.300781 54.800781 39 C 55.101562 38.5 55.800781 38.199219 56.601562 37.601562 C 54.800781 34.199219 52.800781 30.601562 50.898438 27 C 50.699219 26.699219 50.398438 26.300781 50.398438 25.898438 C 49.898438 20.699219 49.898438 20.699219 47.300781 15.800781 C 47.800781 14.898438 48.398438 14.101562 48.898438 13.199219 C 49.398438 12.300781 49.800781 11.5 50.199219 10.398438 C 47.101562 10.398438 44.5 11.398438 42.101562 13.300781 C 40.199219 10 36.800781 9.101562 33.398438 8.199219 C 31.5 7.699219 30.101562 6.601562 29.300781 4.398438 C 28.601562 6.601562 28.800781 8.5 29.601562 10.398438 C 22 9 15.5 11.101562 10 16.5 C 10.300781 16.601562 10.5 16.699219 10.5 16.800781 C 11.199219 17 12 17.300781 12.699219 17.5 C 12.398438 18.199219 12.101562 19 11.601562 19.5 C 9.398438 21.398438 7.101562 23.199219 4.800781 25.101562 C 5.300781 21.601562 6.5 18.300781 8.398438 15.300781 C 13 7.601562 19.699219 2.898438 28.5 1.5 C 44 -1.101562 58.398438 9.199219 61.398438 24.101562 C 63.699219 35.601562 58.898438 47.398438 49.5 53.800781 C 47.699219 55 46 54.5 44.199219 54.101562 C 40.101562 53.199219 37 50.601562 34.601562 47.101562 C 30.800781 41.800781 29.101562 35.800781 30.300781 29.199219 C 30.601562 26.101562 32 23.5 34.300781 21.699219 Z M 12.898438 44.300781 C 13.800781 33.800781 18 25 27.101562 18.800781 C 25.199219 17.800781 23.398438 16.800781 21.601562 15.800781 C 25.300781 14.101562 29 14 32.898438 14.300781 C 27.199219 13 21.699219 13.398438 16.5 16.398438 C 18.800781 17.300781 20.800781 18.101562 23.300781 19.101562 C 14.5 25.699219 12.199219 34.398438 12.898438 44.300781 Z M 47.5 38.601562 C 47.101562 38 46.800781 37.300781 46.199219 36.898438 C 44.300781 35.601562 42.5 34.300781 40.5 33 C 37.898438 31.300781 34.699219 30.101562 34.601562 26 C 33.699219 27.898438 33.699219 29.5 35.101562 30.5 C 37 32 39.199219 33.199219 41.398438 34.5 C 43.398438 35.800781 45.398438 37 47.398438 38.300781 C 47.5 38.398438 47.5 38.5 47.5 38.601562 Z M 46.898438 23.601562 C 47.101562 25 47.898438 25.5 49.199219 25.601562 C 49.398438 23.199219 47.300781 22.5 45.898438 21.300781 C 46.199219 22.101562 46.699219 22.800781 46.898438 23.601562 Z M 43.300781 14.199219 C 44 14.101562 44.800781 14.300781 45.300781 14 C 46.199219 13.300781 47 12.5 47.898438 11.699219 C 47.800781 11.601562 47.800781 11.5 47.800781 11.398438 C 46.300781 12.101562 44.800781 12.898438 43.300781 13.601562 C 43.300781 13.800781 43.300781 14 43.300781 14.199219 Z M 43.300781 14.199219 "/>
</g>
</svg>
