<svg xmlns="http://www.w3.org/2000/svg" width="85" height="85" viewBox="0 0 85 85">
  <g id="_9023989_sticker_fill_icon" data-name="9023989_sticker_fill_icon" transform="translate(-0.153 -0.153)">
    <rect id="Rectangle_25" data-name="Rectangle 25" width="85" height="85" transform="translate(0.153 0.153)" fill="none"/>
    <path id="Path_5" data-name="Path 5" d="M77.28,32H50.645A18.645,18.645,0,0,0,32,50.645V77.28A18.645,18.645,0,0,0,50.645,95.925H66.626a2.3,2.3,0,0,0,.832-.133c8.756-2.93,25.4-19.577,28.333-28.333a2.3,2.3,0,0,0,.133-.832V50.645A18.645,18.645,0,0,0,77.28,32ZM66.626,90.4V79.943A13.318,13.318,0,0,1,79.943,66.626H90.4C87.335,73.817,73.817,87.335,66.626,90.4Z" transform="translate(-21.309 -21.309)" fill="#ab192d"/>
  </g>
</svg>
