<?xml version="1.0" encoding="UTF-8"?>
<svg xmlns="http://www.w3.org/2000/svg" xmlns:xlink="http://www.w3.org/1999/xlink" width="170px" height="46px" viewBox="0 0 170 46" version="1.1">
<g id="surface1">
<path style=" stroke:none;fill-rule:nonzero;fill:rgb(13.72549%,12.156863%,12.54902%);fill-opacity:1;" d="M 63.5 24.699219 L 63.5 15.398438 L 60.398438 23.101562 L 57.398438 23.101562 L 54.300781 15.398438 L 54.300781 24.699219 L 50.101562 24.699219 L 50.101562 9.101562 L 55 9.101562 L 58.800781 17.800781 L 62.601562 9.101562 L 67.5 9.101562 L 67.5 24.699219 Z M 63.5 24.699219 "/>
<path style=" stroke:none;fill-rule:nonzero;fill:rgb(13.72549%,12.156863%,12.54902%);fill-opacity:1;" d="M 74.300781 22.199219 L 73.398438 24.699219 L 68.601562 24.699219 L 75.300781 9.101562 L 80 9.101562 L 86.398438 24.699219 L 81.5 24.699219 L 80.601562 22.199219 Z M 77.5 13.699219 L 75.601562 18.800781 L 79.398438 18.800781 Z M 77.5 13.699219 "/>
<path style=" stroke:none;fill-rule:nonzero;fill:rgb(13.72549%,12.156863%,12.54902%);fill-opacity:1;" d="M 88.601562 24.699219 L 82.601562 9.101562 L 87.5 9.101562 L 91.101562 19.898438 L 94.699219 9.101562 L 99.5 9.101562 L 93.5 24.699219 Z M 88.601562 24.699219 "/>
<path style=" stroke:none;fill-rule:nonzero;fill:rgb(13.72549%,12.156863%,12.54902%);fill-opacity:1;" d="M 105.101562 12.699219 L 105.101562 15.101562 L 112.5 15.101562 L 112.5 18.699219 L 105.101562 18.699219 L 105.101562 21.199219 L 113.5 21.199219 L 113.5 24.800781 L 100.5 24.800781 L 100.5 9.101562 L 113.300781 9.101562 L 113.300781 12.699219 Z M 105.101562 12.699219 "/>
<path style=" stroke:none;fill-rule:nonzero;fill:rgb(13.72549%,12.156863%,12.54902%);fill-opacity:1;" d="M 122.101562 20.5 L 119.601562 20.5 L 119.601562 24.699219 L 115 24.699219 L 115 9.101562 L 122.300781 9.101562 C 126.5 9.101562 128.898438 11.101562 128.898438 14.601562 C 128.898438 16.898438 128 18.601562 126.300781 19.5 L 129.5 24.601562 L 124.300781 24.601562 Z M 122.300781 16.898438 C 123.699219 16.898438 124.5 16.199219 124.5 14.699219 C 124.5 13.398438 123.699219 12.601562 122.300781 12.601562 L 119.601562 12.601562 L 119.601562 16.898438 Z M 122.300781 16.898438 "/>
<path style=" stroke:none;fill-rule:nonzero;fill:rgb(13.72549%,12.156863%,12.54902%);fill-opacity:1;" d="M 130.898438 24.699219 L 130.898438 9.101562 L 135.601562 9.101562 L 135.601562 24.699219 Z M 130.898438 24.699219 "/>
<path style=" stroke:none;fill-rule:nonzero;fill:rgb(13.72549%,12.156863%,12.54902%);fill-opacity:1;" d="M 151.898438 11.699219 L 149.199219 14.898438 C 148.199219 13.699219 146.800781 12.800781 145.5 12.800781 C 143.398438 12.800781 141.800781 14.5 141.800781 16.800781 C 141.800781 19.101562 143.398438 20.800781 145.5 20.800781 C 146.699219 20.800781 148.199219 20.101562 149.199219 19 L 151.898438 21.898438 C 150.199219 23.699219 147.601562 24.898438 145.300781 24.898438 C 140.5 24.898438 137.101562 21.5 137.101562 16.898438 C 137.101562 12.300781 140.699219 9 145.5 9 C 147.800781 8.898438 150.300781 10 151.898438 11.699219 Z M 151.898438 11.699219 "/>
<path style=" stroke:none;fill-rule:nonzero;fill:rgb(13.72549%,12.156863%,12.54902%);fill-opacity:1;" d="M 159.5 19 L 157.699219 21 L 157.699219 24.800781 L 153 24.800781 L 153 9.101562 L 157.699219 9.101562 L 157.699219 15.101562 L 162.898438 9.101562 L 168.199219 9.101562 L 162.601562 15.398438 L 168.601562 24.699219 L 163.101562 24.699219 Z M 159.5 19 "/>
<path style=" stroke:none;fill-rule:nonzero;fill:rgb(67.058824%,9.803922%,17.647059%);fill-opacity:1;" d="M 76.601562 34 L 76.601562 35.5 L 71.5 35.5 L 71.5 27.699219 L 73.300781 27.699219 L 73.300781 34 Z M 76.601562 34 "/>
<path style=" stroke:none;fill-rule:nonzero;fill:rgb(67.058824%,9.803922%,17.647059%);fill-opacity:1;" d="M 89.199219 34 L 88.601562 35.5 L 86.800781 35.5 L 90.199219 27.699219 L 92 27.699219 L 95.300781 35.5 L 93.398438 35.5 L 92.800781 34 Z M 91.101562 29.601562 L 89.898438 32.601562 L 92.398438 32.601562 Z M 91.101562 29.601562 "/>
<path style=" stroke:none;fill-rule:nonzero;fill:rgb(67.058824%,9.803922%,17.647059%);fill-opacity:1;" d="M 109.800781 27.699219 C 111.5 27.699219 112.601562 28.398438 112.601562 29.601562 C 112.601562 30.398438 112.101562 31.101562 111.300781 31.300781 C 112.300781 31.5 112.898438 32.199219 112.898438 33.300781 C 112.898438 34.601562 111.800781 35.5 110 35.5 L 106.300781 35.5 L 106.300781 27.699219 Z M 107.898438 30.898438 L 109.601562 30.898438 C 110.199219 30.898438 110.699219 30.601562 110.699219 30 C 110.699219 29.5 110.300781 29.199219 109.601562 29.199219 L 107.898438 29.199219 Z M 107.898438 34.101562 L 109.601562 34.101562 C 110.398438 34.101562 110.898438 33.800781 110.898438 33.199219 C 110.898438 32.699219 110.398438 32.300781 109.601562 32.300781 L 107.898438 32.300781 Z M 107.898438 34.101562 "/>
<path style=" stroke:none;fill-rule:nonzero;fill:rgb(67.058824%,9.803922%,17.647059%);fill-opacity:1;" d="M 125.898438 29.199219 L 125.898438 30.898438 L 129.699219 30.898438 L 129.699219 32.300781 L 125.898438 32.300781 L 125.898438 34 L 130.199219 34 L 130.199219 35.398438 L 124.199219 35.398438 L 124.199219 27.601562 L 130.101562 27.601562 L 130.101562 29 Z M 125.898438 29.199219 "/>
<path style=" stroke:none;fill-rule:nonzero;fill:rgb(67.058824%,9.803922%,17.647059%);fill-opacity:1;" d="M 146.699219 34 L 146.699219 35.5 L 141.601562 35.5 L 141.601562 27.699219 L 143.398438 27.699219 L 143.398438 34 Z M 146.699219 34 "/>
<path style=" stroke:none;fill-rule:nonzero;fill:rgb(67.058824%,9.803922%,17.647059%);fill-opacity:1;" d="M 22.199219 17.800781 C 21.800781 18.601562 21.300781 19.5 20.898438 20.398438 C 19.699219 23.300781 20.5 25.300781 23.199219 26.699219 C 24.699219 27.5 26.398438 28.199219 27.898438 29 C 30.300781 30.300781 30.898438 31.699219 30.601562 34.5 C 31.898438 34.898438 33.300781 35.601562 34.601562 35.601562 C 36.199219 35.601562 38.398438 34.199219 38.898438 31.898438 C 38.898438 31.800781 39 31.601562 38.898438 31.5 C 38.898438 31.300781 38.800781 31.101562 38.699219 30.800781 C 38.5 30.898438 38.199219 31 38 31.199219 C 37.898438 31.300781 38 31.5 37.898438 31.601562 C 37.800781 31.601562 37.699219 31.601562 37.601562 31.601562 C 37.5 31.199219 37.101562 30.699219 37.300781 30.5 C 37.5 30.101562 38 29.898438 38.601562 29.5 C 37.300781 27 35.800781 24.300781 34.300781 21.601562 C 34.199219 21.398438 34 21.101562 34 20.800781 C 33.699219 16.898438 33.699219 16.898438 31.699219 13.300781 C 32.101562 12.699219 32.5 12.101562 32.898438 11.398438 C 33.199219 10.800781 33.5 10.101562 33.898438 9.300781 C 31.601562 9.300781 29.699219 10 27.898438 11.398438 C 26.5 9 24 8.398438 21.5 7.800781 C 20.101562 7.398438 19.101562 6.601562 18.5 5 C 18 6.601562 18.101562 8 18.699219 9.5 C 13.101562 8.5 8.300781 10 4.199219 14.101562 C 4.398438 14.199219 4.5 14.199219 4.601562 14.300781 C 5.101562 14.398438 5.699219 14.601562 6.199219 14.800781 C 6 15.300781 5.800781 15.898438 5.398438 16.300781 C 3.800781 17.699219 2.101562 19.101562 0.398438 20.5 C 0.800781 17.898438 1.699219 15.5 3.101562 13.199219 C 6.5 7.601562 11.5 4.101562 17.898438 3 C 29.398438 0.898438 40 8.5 42.199219 19.5 C 43.898438 28 40.398438 36.800781 33.398438 41.5 C 32.101562 42.398438 30.800781 42 29.5 41.699219 C 26.398438 41 24.199219 39.101562 22.398438 36.601562 C 19.601562 32.601562 18.300781 28.199219 19.199219 23.300781 C 19.5 21.101562 20.398438 19.101562 22.199219 17.800781 Z M 6.300781 34.5 C 6.898438 26.699219 10.101562 20.199219 16.800781 15.601562 C 15.398438 14.898438 14.101562 14.101562 12.699219 13.398438 C 15.398438 12.199219 18.199219 12.101562 21.101562 12.300781 C 16.898438 11.300781 12.800781 11.601562 8.898438 13.800781 C 10.601562 14.5 12.101562 15.101562 13.898438 15.800781 C 7.5 20.699219 5.800781 27.199219 6.300781 34.5 Z M 31.898438 30.300781 C 31.601562 29.898438 31.398438 29.398438 31 29.101562 C 29.601562 28.101562 28.199219 27.199219 26.800781 26.199219 C 24.898438 25 22.5 24.101562 22.398438 21.101562 C 21.699219 22.5 21.800781 23.699219 22.800781 24.5 C 24.199219 25.601562 25.898438 26.5 27.5 27.5 C 29 28.300781 30.398438 29.199219 31.898438 30.300781 C 31.898438 30.199219 31.898438 30.199219 31.898438 30.300781 Z M 31.5 19.199219 C 31.601562 20.199219 32.199219 20.601562 33.199219 20.699219 C 33.300781 18.898438 31.800781 18.398438 30.699219 17.5 C 31 18.101562 31.398438 18.601562 31.5 19.199219 Z M 28.898438 12.300781 C 29.398438 12.300781 30 12.398438 30.398438 12.199219 C 31.101562 11.699219 31.699219 11.101562 32.300781 10.5 C 32.300781 10.5 32.300781 10.398438 32.199219 10.300781 C 31.101562 10.800781 30 11.398438 28.800781 11.898438 C 28.800781 12 28.800781 12.101562 28.898438 12.300781 Z M 28.898438 12.300781 "/>
</g>
</svg>
